<svg xmlns="http://www.w3.org/2000/svg" viewBox="0 0 512 512">
  <defs>
    <linearGradient id="water" x1="0%" y1="0%" x2="0%" y2="100%">
      <stop offset="0%" style="stop-color:#0EA5E9"/>
      <stop offset="100%" style="stop-color:#0369A1"/>
    </linearGradient>
  </defs>
  <!-- Background circle -->
  <circle cx="256" cy="256" r="240" fill="url(#water)"/>
  <!-- Water waves -->
  <path d="M80 300 Q140 260, 200 300 T320 300 T440 300" stroke="white" stroke-width="12" fill="none" opacity="0.6"/>
  <path d="M60 340 Q120 300, 180 340 T300 340 T420 340" stroke="white" stroke-width="10" fill="none" opacity="0.4"/>
  <!-- Document icon -->
  <rect x="180" y="140" width="152" height="180" rx="8" fill="white"/>
  <rect x="200" y="180" width="80" height="8" rx="2" fill="#0EA5E9"/>
  <rect x="200" y="200" width="112" height="6" rx="2" fill="#CBD5E1"/>
  <rect x="200" y="216" width="100" height="6" rx="2" fill="#CBD5E1"/>
  <rect x="200" y="232" width="90" height="6" rx="2" fill="#CBD5E1"/>
  <rect x="200" y="260" width="112" height="6" rx="2" fill="#CBD5E1"/>
  <rect x="200" y="276" width="80" height="6" rx="2" fill="#CBD5E1"/>
  <!-- Checkmark -->
  <circle cx="340" cy="280" r="40" fill="#10B981"/>
  <path d="M320 280 L335 295 L365 260" stroke="white" stroke-width="8" fill="none" stroke-linecap="round" stroke-linejoin="round"/>
</svg>
